HIERARCHY
ROOT Hips
{
	OFFSET 0.000000 0.000000 0.000000
	CHANNELS 6 Xposition Yposition Zposition Zrotation Yrotation Xrotation 
	JOINT LHipJoint
	{
		OFFSET 0.000000 0.000000 0.000000
		CHANNELS 3 Zrotation Yrotation Xrotation
		JOINT LeftUpLeg
		{
			OFFSET 1.363060 -1.794630 0.839290
			CHANNELS 3 Zrotation Yrotation Xrotation
			JOINT LeftLeg
			{
				OFFSET 2.448110 -6.726130 0.000000
				CHANNELS 3 Zrotation Yrotation Xrotation
				JOINT LeftFoot
				{
					OFFSET 2.562200 -7.039590 0.000000
					CHANNELS 3 Zrotation Yrotation Xrotation
					JOINT LeftToeBase
					{
						OFFSET 0.157640 -0.433110 2.322550
						CHANNELS 3 Zrotation Yrotation Xrotation
						End Site
						{
							OFFSET 0.000000 0.000000 0.000000
						}
					}
				}
			}
		}
	}
	JOINT RHipJoint
	{
		OFFSET 0.000000 0.000000 0.000000
		CHANNELS 3 Zrotation Yrotation Xrotation
		JOINT RightUpLeg
		{
			OFFSET -1.305520 -1.794630 0.839290
			CHANNELS 3 Zrotation Yrotation Xrotation
			JOINT RightLeg
			{
				OFFSET -2.542530 -6.985550 0.000000
				CHANNELS 3 Zrotation Yrotation Xrotation
				JOINT RightFoot
				{
					OFFSET -2.568260 -7.056230 0.000000
					CHANNELS 3 Zrotation Yrotation Xrotation
					JOINT RightToeBase
					{
						OFFSET -0.164730 -0.452590 2.363150
						CHANNELS 3 Zrotation Yrotation Xrotation
						End Site
						{
							OFFSET 0.000000 0.000000 0.000000
						}
					}
				}
			}
		}
	}
	JOINT LowerBack
	{
		OFFSET 0.000000 0.000000 0.000000
		CHANNELS 3 Zrotation Yrotation Xrotation
		JOINT Spine
		{
			OFFSET 0.028270 2.035590 -0.193380
			CHANNELS 3 Zrotation Yrotation Xrotation
			JOINT Spine1
			{
				OFFSET 0.056720 2.048850 -0.042750
				CHANNELS 3 Zrotation Yrotation Xrotation
				JOINT Neck
				{
					OFFSET 0.000000 0.000000 0.000000
					CHANNELS 3 Zrotation Yrotation Xrotation
					JOINT Neck1
					{
						OFFSET -0.054170 1.746240 0.172020
						CHANNELS 3 Zrotation Yrotation Xrotation
						JOINT Head
						{
							OFFSET 0.104070 1.761360 -0.123970
							CHANNELS 3 Zrotation Yrotation Xrotation
							End Site
							{
								OFFSET 0.000000 0.000000 0.000000
							}
						}
					}
				}
				JOINT LeftShoulder
				{
					OFFSET 0.000000 0.000000 0.000000
					CHANNELS 3 Zrotation Yrotation Xrotation
					JOINT LeftArm
					{
						OFFSET 3.362410 1.200890 -0.311210
						CHANNELS 3 Zrotation Yrotation Xrotation
						JOINT LeftForeArm
						{
							OFFSET 4.983000 -0.000000 -0.000000
							CHANNELS 3 Zrotation Yrotation Xrotation
							JOINT LeftHand
							{
								OFFSET 3.483560 -0.000000 -0.000000
								CHANNELS 3 Zrotation Yrotation Xrotation
								JOINT LeftFingerBase
								{
									OFFSET 0.000000 0.000000 0.000000
									CHANNELS 3 Zrotation Yrotation Xrotation
									JOINT LeftHandIndex1
									{
										OFFSET 0.715260 -0.000000 -0.000000
										CHANNELS 3 Zrotation Yrotation Xrotation
										End Site
										{
											OFFSET 0.000000 0.000000 0.000000
										}
									}
								}
								JOINT LThumb
								{
									OFFSET 0.000000 0.000000 0.000000
									CHANNELS 3 Zrotation Yrotation Xrotation
									End Site
									{
										OFFSET 0.000000 0.000000 0.000000
									}
								}
							}
						}
					}
				}
				JOINT RightShoulder
				{
					OFFSET 0.000000 0.000000 0.000000
					CHANNELS 3 Zrotation Yrotation Xrotation
					JOINT RightArm
					{
						OFFSET -3.136600 1.374050 -0.404650
						CHANNELS 3 Zrotation Yrotation Xrotation
						JOINT RightForeArm
						{
							OFFSET -5.241900 -0.000000 -0.000000
							CHANNELS 3 Zrotation Yrotation Xrotation
							JOINT RightHand
							{
								OFFSET -3.444170 -0.000000 -0.000000
								CHANNELS 3 Zrotation Yrotation Xrotation
								JOINT RightFingerBase
								{
									OFFSET 0.000000 0.000000 0.000000
									CHANNELS 3 Zrotation Yrotation Xrotation
									JOINT RightHandIndex1
									{
										OFFSET -0.622530 -0.000000 -0.000000
										CHANNELS 3 Zrotation Yrotation Xrotation
										End Site
										{
											OFFSET 0.000000 0.000000 0.000000
										}
									}
								}
								JOINT RThumb
								{
									OFFSET 0.000000 0.000000 0.000000
									CHANNELS 3 Zrotation Yrotation Xrotation
									End Site
									{
										OFFSET 0.000000 0.000000 0.000000
									}
								}
							}
						}
					}
				}
			}
		}
	}
}
MOTION
Frames: 7
Frame Time: 0.008333
3.147575 16.446607 -0.016819 54.401246 88.605463 77.042530 -8.426020 -1.384772 1.237158 -8.231757 -4.832017 -52.125915 -2.381468 0.811786 23.031364 -0.148152 -1.362747 3.795241 0.099300 -0.000000 -31.169600 10.892580 -2.772977 -2.819098 4.081501 -2.974945 -0.938649 1.263276 -2.258939 25.885384 0.315995 5.235036 7.251877 1.163700 0.000000 -84.900600 -4.379819 1.458658 3.608331 -2.268689 1.661746 -2.421137 -8.159755 1.567361 0.093093 8.883673 5.827432 3.945956 -5.542664 -0.462375 2.625537 0.000000 0.000000 0.000000 -5.763930 -0.611401 2.703736 -52.284155 -10.305400 16.698719 -4.104054 -27.202969 -0.000948 0.304775 0.942681 0.004287 -0.137332 0.011973 0.000000 0.000000 0.000000 0.000000 0.000000 0.000000 0.000000 22.931790 5.530427 -0.858235 70.937797 22.818398 20.656258 1.666262 42.388115 0.000203 0.985887 10.361941 0.093626 -0.022370 -0.211996 0.000000 0.000000 0.000000 0.000000 0.000000 0.000000 0.000000 
3.337146 16.416503 -0.022911 56.734848 88.184639 79.257771 -8.252132 -1.263227 1.113409 -8.745155 -5.286393 -52.505543 -2.222343 1.042345 25.790647 -0.037214 -0.745369 3.468473 0.211800 -0.000000 -29.388600 11.271039 -2.679994 -2.912080 3.071588 -3.395744 -1.881605 0.980116 -2.495788 28.652086 0.270720 5.726744 9.055753 1.503800 0.000000 -86.633300 -4.924858 1.492134 3.832386 -2.385111 1.720235 -2.409635 -8.176496 1.620235 -0.004820 9.011432 6.063106 4.093899 -5.561969 -0.463990 2.655914 0.000000 0.000000 0.000000 -5.836205 -1.083625 2.759236 -52.165230 -10.586688 16.079297 -4.162647 -25.985368 -0.001156 0.525925 0.984568 0.006262 -0.136284 0.014957 0.000000 0.000000 0.000000 0.000000 0.000000 0.000000 0.000000 23.167464 5.684783 -0.821006 71.094813 22.666056 19.703036 1.659755 41.493159 -0.000595 0.798278 10.513730 0.077420 -0.022553 -0.211301 0.000000 0.000000 0.000000 0.000000 0.000000 0.000000 0.000000 
3.521185 16.392967 -0.029767 57.461509 87.707428 79.859651 -8.099702 -1.166915 0.975727 -9.282604 -5.714139 -52.677135 -2.087800 1.226729 28.244558 0.082765 -0.094122 2.824276 0.321700 -0.000000 -27.971000 11.612035 -2.560964 -3.007874 2.063501 -3.757696 -2.941056 0.686511 -2.722400 31.551042 0.185154 6.119019 11.093821 1.881800 0.000000 -87.418600 -5.473744 1.536078 4.089663 -2.499113 1.788711 -2.389444 -8.176229 1.683548 -0.100257 9.082714 6.332044 4.279712 -5.574274 -0.465329 2.694634 0.000000 0.000000 0.000000 -5.920849 -1.588613 2.807099 -52.125956 -10.959317 15.325348 -4.218627 -24.601277 -0.001422 0.801861 1.030482 0.008932 -0.134550 0.019064 0.000000 0.000000 0.000000 0.000000 0.000000 0.000000 0.000000 23.311057 5.858883 -0.791479 71.291993 22.538762 18.651924 1.652200 40.483031 -0.001491 0.559869 10.673350 0.055713 -0.022248 -0.210072 0.000000 0.000000 0.000000 0.000000 0.000000 0.000000 0.000000 
3.699995 16.375964 -0.038387 57.065113 87.211694 79.335747 -7.969604 -1.095661 0.826858 -9.813306 -6.096265 -52.653838 -1.980008 1.368283 30.384275 0.211131 0.583412 1.884637 0.416900 -0.000001 -26.959200 11.909622 -2.420350 -3.098201 1.114116 -4.029600 -4.097021 0.395558 -2.932808 34.533947 0.054911 6.324696 13.280947 2.253000 -0.000000 -87.142700 -5.982671 1.590003 4.366521 -2.602077 1.864744 -2.362403 -8.159270 1.754949 -0.191310 9.091763 6.634580 4.505126 -5.579793 -0.466442 2.742632 0.000000 0.000000 0.000000 -6.012296 -2.124522 2.844531 -52.190200 -11.404197 14.397632 -4.267346 -23.059332 -0.001781 1.134958 1.084316 0.012299 -0.131857 0.024390 0.000000 0.000000 0.000000 0.000000 0.000000 0.000000 0.000000 23.355680 6.053257 -0.769331 71.518894 22.433427 17.521519 1.645256 39.369728 -0.002415 0.287216 10.826551 0.030106 -0.021492 -0.208160 0.000000 0.000000 0.000000 0.000000 0.000000 0.000000 0.000000 
3.874055 16.365361 -0.050151 55.765703 86.737352 77.911035 -7.872671 -1.054752 0.669149 -10.290118 -6.407387 -52.463107 -1.895456 1.472796 32.223570 0.347051 1.271416 0.694374 0.483800 0.000001 -26.350700 12.147609 -2.267608 -3.178314 0.296316 -4.183081 -5.325483 0.121280 -3.124042 37.547304 -0.119013 6.242178 15.508278 2.545300 -0.000000 -85.803900 -6.401155 1.650928 4.652249 -2.684267 1.943735 -2.323665 -8.129935 1.831047 -0.252741 9.033467 6.959099 4.743566 -5.579390 -0.467081 2.792780 0.000000 0.000000 0.000000 -6.132561 -2.552355 2.865003 -52.352202 -12.090680 13.397669 -4.311033 -21.288585 -0.002244 1.536465 1.129672 0.016564 -0.128555 0.031237 0.000000 0.000000 0.000000 0.000000 0.000000 0.000000 0.000000 23.299096 6.260609 -0.765701 71.764655 22.372249 16.348677 1.641133 38.168967 -0.003281 -0.000400 10.961500 0.002196 -0.020296 -0.205302 0.000000 0.000000 0.000000 0.000000 0.000000 0.000000 0.000000 
4.044097 16.360828 -0.064963 53.838939 86.286922 75.855557 -7.804509 -1.035661 0.508475 -10.709882 -6.649872 -52.108595 -1.832564 1.543822 33.759504 0.491742 1.976621 -0.672123 0.516700 -0.000000 -26.110800 12.333012 -2.105196 -3.248973 -0.389952 -4.242123 -6.609448 -0.128547 -3.296526 40.556253 -0.329179 5.812814 17.650403 2.685700 0.000001 -83.529700 -6.728987 1.717093 4.936505 -2.746383 2.024277 -2.279511 -8.089186 1.909566 -0.300795 8.918905 7.303327 5.010892 -5.575043 -0.467606 2.850073 0.000000 0.000000 0.000000 -6.245149 -2.972300 2.870177 -52.640331 -12.851342 12.188263 -4.338754 -19.379984 -0.002873 1.997798 1.179277 0.021625 -0.123928 0.039333 0.000000 0.000000 0.000000 0.000000 0.000000 0.000000 0.000000 23.161209 6.477459 -0.769371 72.011848 22.334032 15.153355 1.642483 36.903350 -0.003990 -0.275697 11.058433 -0.025113 -0.018766 -0.201559 0.000000 0.000000 0.000000 0.000000 0.000000 0.000000 0.000000 
4.210898 16.362036 -0.083154 51.402766 85.872625 73.287248 -7.769845 -1.037254 0.348828 -11.051568 -6.816000 -51.613194 -1.785866 1.586951 35.011574 0.643551 2.688655 -2.131774 0.510600 0.000000 -26.179499 12.462475 -1.940702 -3.311419 -0.918901 -4.218259 -7.929752 -0.349288 -3.452524 43.516296 -0.567860 4.966598 19.586728 2.593500 -0.000000 -80.578000 -6.951543 1.784113 5.211833 -2.786373 2.101983 -2.228299 -8.042315 1.986595 -0.323849 8.757734 7.653593 5.289808 -5.568773 -0.467967 2.909995 0.000000 0.000000 0.000000 -6.352943 -3.319281 2.858013 -53.041412 -13.752017 10.819198 -4.348754 -17.327951 -0.003690 2.522641 1.221284 0.027484 -0.118095 0.048630 0.000000 0.000000 0.000000 0.000000 0.000000 0.000000 0.000000 22.961431 6.693084 -0.784005 72.246826 22.325439 13.970222 1.651623 35.598703 -0.004457 -0.514157 11.103241 -0.048923 -0.016974 -0.196845 0.000000 0.000000 0.000000 0.000000 0.000000 0.000000 0.000000 
